<?xml version="1.0" encoding="UTF-8"?>
<svg width="250px" height="154px" viewBox="0 0 250 154" version="1.1" xmlns="http://www.w3.org/2000/svg" xmlns:xlink="http://www.w3.org/1999/xlink">
    <title>bad-day</title>
    <defs>
        <polygon id="path-1" points="0 153.779427 248.993938 153.779427 248.993938 0 0 0"></polygon>
    </defs>
    <g id="Page-1" stroke="none" stroke-width="1" fill="none" fill-rule="evenodd">
        <g id="Desktop" transform="translate(-360.000000, -1338.000000)">
            <g id="bad-day" transform="translate(360.000000, 1338.000000)">
                <g id="Group-44">
                    <path d="M13.0231063,91.0977375 C13.2549083,91.1169875 13.4578354,91.131425 13.6318875,91.14105 C13.8059396,91.150675 13.9503146,91.1554875 14.0666167,91.1554875 C15.5737313,91.1554875 16.7768563,90.7600604 17.6751896,89.9676021 C18.5735229,89.1759458 19.0218875,88.1123833 19.0218875,86.7793208 C19.0218875,85.4462583 18.5735229,84.4027479 17.6751896,83.6495917 C16.7768563,82.8956333 15.5448563,82.5194562 13.9791896,82.5194562 L13.0231063,82.5194562 L13.0231063,91.0977375 Z M13.0231063,73.4478938 L13.8348146,73.4478938 C15.2833771,73.4478938 16.4287521,73.1102167 17.2693354,72.4332583 C18.1099188,71.7579042 18.5294083,70.8106437 18.5294083,69.5930813 C18.5294083,67.0047583 17.1097208,65.7101958 14.2695438,65.7101958 C14.1339917,65.7101958 13.9655542,65.7150083 13.7626271,65.7246333 C13.5597,65.7342583 13.3126583,65.7486958 13.0231063,65.7679458 L13.0231063,73.4478938 Z M0.938116667,100.806154 L0.938116667,56.0587271 L14.993825,56.0587271 C20.249075,56.0587271 24.1423875,57.2185396 26.6737625,59.5365604 C29.2436375,61.9131333 30.5277729,64.9851125 30.5277729,68.7533 C30.5277729,74.3558521 27.7453458,77.3893312 22.1812938,77.8529354 C25.3495229,78.3165396 27.6739604,79.36005 29.1513979,80.9834667 C30.6296375,82.6060812 31.3683562,84.9441542 31.3683562,87.9968833 C31.3683562,91.8420708 30.1219188,94.9333 27.6298458,97.2705708 C25.1570229,99.6278937 21.9005646,100.806154 17.8628771,100.806154 L0.938116667,100.806154 Z" id="Fill-1" fill="#77828C"></path>
                    <path d="M53.4813125,85.5332844 L52.6984792,80.3165344 C52.6792292,80.2972844 52.6407292,80.0366073 52.5829792,79.5345031 C52.5444792,79.109399 52.3415521,77.4282323 51.9741979,74.4910031 C51.9356979,74.162951 51.8875729,73.7137844 51.8290208,73.1435031 C51.7712708,72.574024 51.6934688,71.8537531 51.5972187,70.9842948 L51.2210417,66.7533052 C51.1825417,67.1591594 51.1288021,67.6131385 51.0614271,68.1152427 C50.99325,68.618149 50.9218646,69.1683781 50.8440625,69.7675344 C50.7085104,70.9650448 50.6122604,71.7960031 50.5545104,72.2596073 C50.4959583,72.7232115 50.4574583,73.0039406 50.4382083,73.1001906 L49.597625,78.5198677 L48.3808646,85.5332844 L53.4813125,85.5332844 Z M68.2909792,100.806555 L55.8001354,100.806555 L54.9018021,95.126201 L46.7574479,95.126201 L45.7724896,100.806555 L33.2808437,100.806555 L44.0335729,56.0591281 L58.8135625,56.0591281 L68.2909792,100.806555 Z" id="Fill-3" fill="#77828C"></path>
                    <path d="M83.8829177,89.9963969 C88.2109594,89.7838448 90.3749802,86.0549594 90.3749802,78.8097406 C90.3749802,75.2356573 89.823949,72.4147302 88.7226885,70.3469594 C87.6214281,68.2599385 86.1343656,67.2172302 84.2598969,67.2172302 L83.8829177,67.2172302 L83.8829177,89.9963969 Z M71.7979281,100.806876 L71.7979281,56.0586469 L82.230626,56.0586469 C88.2013344,56.0586469 92.8478031,57.6628135 96.1708344,60.8703448 C100.538178,65.0628344 102.720647,70.9268656 102.720647,78.4616365 C102.720647,85.8809073 100.875855,91.6101885 97.1854698,95.647876 C94.0356885,99.0872094 89.3410948,100.806876 83.1000844,100.806876 L71.7979281,100.806876 Z" id="Fill-5" fill="#77828C"></path>
                    <path d="M137.817568,89.9963969 C142.145609,89.7838448 144.30963,86.0549594 144.30963,78.8097406 C144.30963,75.2356573 143.758599,72.4147302 142.657339,70.3469594 C141.556078,68.2599385 140.069016,67.2172302 138.194547,67.2172302 L137.817568,67.2172302 L137.817568,89.9963969 Z M125.732578,100.806876 L125.732578,56.0586469 L136.165276,56.0586469 C142.135984,56.0586469 146.782453,57.6628135 150.105484,60.8703448 C154.472828,65.0628344 156.655297,70.9268656 156.655297,78.4616365 C156.655297,85.8809073 154.810505,91.6101885 151.12012,95.647876 C147.970339,99.0872094 143.275745,100.806876 137.034734,100.806876 L125.732578,100.806876 Z" id="Fill-7" fill="#77828C"></path>
                    <path d="M178.101882,85.5332844 L177.319049,80.3165344 C177.299799,80.2972844 177.261299,80.0366073 177.203549,79.5345031 C177.164247,79.109399 176.96132,77.4282323 176.594768,74.4910031 C176.556268,74.162951 176.508143,73.7137844 176.449591,73.1435031 C176.391841,72.574024 176.314039,71.8537531 176.217789,70.9842948 L175.841611,66.7533052 C175.803111,67.1591594 175.749372,67.6131385 175.681997,68.1152427 C175.61382,68.618149 175.542434,69.1683781 175.464632,69.7675344 C175.32908,70.9650448 175.23283,71.7960031 175.17508,72.2596073 C175.116528,72.7232115 175.078028,73.0039406 175.058778,73.1001906 L174.218195,78.5198677 L173.001434,85.5332844 L178.101882,85.5332844 Z M192.911549,100.806555 L180.420705,100.806555 L179.522372,95.126201 L171.378018,95.126201 L170.393059,100.806555 L157.901414,100.806555 L168.654143,56.0591281 L183.434132,56.0591281 L192.911549,100.806555 Z" id="Fill-9" fill="#77828C"></path>
                    <path d="M216.473389,100.806555 L204.388399,100.806555 L204.388399,81.852524 L193.288368,56.0591281 L205.895514,56.0591281 L208.068357,62.6955656 C208.493461,63.9909302 208.875253,65.2365656 209.213732,66.434076 C209.551409,67.6323885 209.855399,68.781774 210.126503,69.8830344 C210.570857,68.2411698 210.956659,66.8254927 211.285514,65.6376073 C211.613566,64.4489198 211.90392,63.488024 212.154972,62.7541177 L214.357493,56.0591281 L226.878014,56.0591281 L216.473389,81.852524 L216.473389,100.806555 Z" id="Fill-11" fill="#77828C"></path>
                    <mask id="mask-2" fill="white">
                        <use xlink:href="#path-1"></use>
                    </mask>
                    <g id="Clip-14"></g>
                    <path d="M231.949667,84.7794062 L243.745104,84.7794062 L243.745104,53.5085833 L231.949667,53.5085833 L231.949667,84.7794062 Z M244.469385,94.7493021 C244.469385,96.6045208 243.792427,98.1790104 242.440917,99.4735729 C241.068552,100.787385 239.474813,101.444292 237.658896,101.444292 C235.842177,101.444292 234.248438,100.787385 232.876875,99.4735729 C231.56226,98.1020104 230.906156,96.4978438 230.906156,94.6626771 C230.906156,92.7882083 231.56226,91.1944687 232.876875,89.8806563 C234.209938,88.5475938 235.804479,87.8810625 237.658896,87.8810625 C239.571865,87.8810625 241.184854,88.5475938 242.498667,89.8806563 C243.812479,91.1944687 244.469385,92.8170833 244.469385,94.7493021 L244.469385,94.7493021 Z" id="Fill-13" fill="#77828C" mask="url(#mask-2)"></path>
                    <path d="M62.5454958,27.8619687 C60.3822771,30.0556667 61.3880896,32.6159167 64.3437667,32.6159167 C66.6297042,32.6159167 68.4271729,30.7566875 69.9511313,28.1058021 L78.9713604,12.3504792 C77.5388396,13.1124583 75.77185,13.5391667 74.0650167,13.5391667 C73.2428813,13.5391667 71.3218917,13.41725 70.5911938,13.41725 C67.8785479,13.41725 66.0201208,15.0623229 66.0201208,16.7386771 C66.0201208,17.7140104 66.4460271,18.5979062 67.5432771,19.2066875 L65.9896417,21.1573542 C64.2828083,20.2429792 63.4606729,18.6580625 63.4606729,17.0434687 C63.4606729,13.5391667 66.6601833,10.9789167 71.2617354,10.9789167 C71.9322771,10.9789167 73.7297458,11.0093958 74.4307667,11.0093958 C77.8131521,11.0093958 80.6477146,9.45495833 80.6477146,9.45495833 L82.2935896,12.2285625 L82.2631104,12.2285625 L72.7552146,28.7153854 C70.0730479,33.3474167 67.1165687,35.1144063 63.9780167,35.1144063 C59.1935896,35.1144063 56.7552563,29.8431146 60.8394646,26.2160938 L62.5454958,27.8619687 Z" id="Fill-15" fill="#77828C" mask="url(#mask-2)"></path>
                    <path d="M85.0084813,25.9421823 L85.1608771,25.9421823 L87.4764917,21.9806927 C89.3974812,18.6889427 86.3495646,17.1954635 84.1245854,20.9748802 L82.6006271,23.5648073 L80.193575,27.7404531 C78.3046688,31.031401 81.9308875,31.5190677 83.4235646,28.9588177 L83.4548458,28.8978594 C83.2711688,28.5930677 83.1500542,28.2273177 83.1500542,27.8310885 C83.1500542,26.7947969 83.9721896,25.9421823 85.0084813,25.9421823 L85.0084813,25.9421823 Z M85.9228562,29.9036719 C81.6557729,35.2976823 74.0071062,32.7687135 77.9998771,25.9117031 L79.3706375,23.5648073 L80.925075,20.8529635 C82.7530229,17.6831302 84.6427312,16.7077969 87.0810646,16.7077969 C90.0672208,16.7077969 91.8350125,19.847151 89.914825,23.1685781 L86.9286687,28.3187552 C88.5127833,28.288276 90.280575,27.527099 91.7122938,25.9726615 L91.92645,25.7288281 C92.3523562,25.9117031 92.9017833,26.3993698 93.1143354,26.8260781 C91.4997417,28.7454635 88.5127833,29.9036719 86.6238771,29.9036719 L85.9228562,29.9036719 Z" id="Fill-16" fill="#77828C" mask="url(#mask-2)"></path>
                    <path d="M93.2690573,28.9895375 C92.5375573,30.2391833 92.9337865,30.72685 93.6340052,30.72685 C94.9750885,30.72685 96.9257552,29.2333708 98.8451406,26.0948187 L101.252995,21.9496521 L101.222516,21.9496521 C102.776953,19.0854125 99.3945677,18.3234333 97.6877344,21.2791104 L93.2690573,28.9895375 Z M106.890839,25.7290687 C107.317547,25.9119438 107.866172,26.3996104 108.079526,26.8255167 C105.458318,29.8734333 102.441682,32.6767146 99.820474,32.6767146 C98.2050781,32.6767146 97.2297448,31.8232979 97.078151,30.6049333 C95.5549948,31.8537771 93.969276,32.6767146 92.689151,32.6767146 C90.1297031,32.6767146 89.184849,30.5126937 90.5259323,28.1666 L94.9750885,20.4866521 C96.3161719,18.1710375 98.6935469,16.8299542 100.40038,16.8299542 C101.710182,16.8299542 102.745672,17.5919333 103.295099,18.4758292 L107.956807,10.4301312 L111.127443,10.4301312 L100.40038,28.9895375 C99.6688802,30.2391833 100.065109,30.72685 100.76613,30.72685 C102.16737,30.72685 104.391547,28.6237875 106.677484,25.9721 L106.890839,25.7290687 Z" id="Fill-17" fill="#77828C" mask="url(#mask-2)"></path>
                    <path d="M108.233686,28.9895375 C107.502186,30.2391833 107.898416,30.72685 108.599436,30.72685 C109.910041,30.72685 111.798947,29.2943292 113.719134,26.2768917 L116.187947,21.9496521 C117.741582,19.0854125 114.359197,18.3234333 112.653166,21.2791104 L108.233686,28.9895375 Z M121.855468,25.7290687 C122.282978,25.9119438 122.830801,26.3996104 123.044957,26.8255167 C120.423749,29.8734333 117.407114,32.6767146 114.785905,32.6767146 C113.170509,32.6767146 112.195176,31.8232979 112.04278,30.6049333 C110.519624,31.8537771 108.934707,32.6767146 107.654582,32.6767146 C105.095134,32.6767146 104.15028,30.5126937 105.491364,28.1666 L109.94052,20.4866521 C111.281603,18.1710375 113.658176,16.8299542 115.365009,16.8299542 C117.437593,16.8299542 118.809155,18.6891833 118.686436,20.0302667 L120.483905,20.0302667 L115.365009,28.9895375 C114.633509,30.2391833 115.029739,30.72685 115.730759,30.72685 C117.132801,30.72685 119.356978,28.6237875 121.642916,25.9721 L121.855468,25.7290687 Z" id="Fill-18" fill="#77828C" mask="url(#mask-2)"></path>
                    <path d="M122.101707,37.7968135 L123.563905,35.2365635 C121.126374,36.1814177 120.364395,37.1262719 120.364395,37.9492094 C120.364395,38.801824 121.431166,38.984699 122.101707,37.7968135 M128.349134,26.886876 L133.956499,17.1351469 L137.12553,17.1351469 L128.43977,32.006574 C130.939864,30.9398031 133.164041,28.9899385 135.785249,25.972501 L135.997801,25.7286677 C136.424509,25.9115427 136.973134,26.3992094 137.187291,26.8259177 C133.712666,30.8483656 130.481874,33.1030219 127.190926,34.1393135 L124.753395,38.3149594 C122.467457,42.2154906 117.804947,41.5754281 117.804947,38.5283135 C117.804947,36.1509385 120.486311,34.383949 124.783874,33.1030219 L126.520384,30.1168656 C125.088666,31.3969906 123.351353,32.6771156 121.827395,32.6771156 C119.724332,32.6771156 118.993634,30.6959698 120.60903,27.8926885 L126.825176,17.1351469 L129.995009,17.1351469 L123.808541,27.9223656 C123.412311,28.5929073 122.619853,29.7815948 123.412311,30.1168656 C124.021895,30.3911781 125.910801,29.1415323 128.349134,26.886876" id="Fill-19" fill="#77828C" mask="url(#mask-2)"></path>
                    <path d="M153.828675,11.8320927 C154.864967,11.8320927 155.687102,12.6550302 155.687102,13.6913219 C155.687102,14.7276135 154.864967,15.5200719 153.828675,15.5200719 C152.792383,15.5200719 152.000727,14.7276135 152.000727,13.6913219 C152.000727,12.6550302 152.792383,11.8320927 153.828675,11.8320927 L153.828675,11.8320927 Z M153.127654,25.7289885 C153.554363,25.9118635 154.102988,26.3995302 154.31554,26.8254365 C151.695935,29.8733531 148.678498,32.6766344 146.058092,32.6766344 C143.497842,32.6766344 142.552988,30.5134156 143.894071,28.1665198 L150.263415,17.1346656 L153.432446,17.1346656 L146.636394,28.9894573 C145.904894,30.2391031 146.301123,30.7267698 147.002144,30.7267698 C148.404185,30.7267698 150.629165,28.6237073 152.9143,25.9720198 L153.127654,25.7289885 Z" id="Fill-20" fill="#77828C" mask="url(#mask-2)"></path>
                    <path d="M151.756894,30.117026 L153.73804,29.0807344 C153.73804,29.0807344 154.164748,30.2389427 155.231519,30.2389427 C158.248154,30.2389427 157.578415,24.3267865 158.827258,21.0358385 C157.699529,22.5293177 156.115415,24.7534948 154.317144,26.825276 C153.859956,26.5212865 153.402769,26.1242552 153.128456,25.7288281 C155.992696,22.3761198 158.85854,18.2317552 160.168342,16.4334844 L162.544915,17.7136094 C160.59505,21.7665365 160.808404,26.3993698 159.802592,29.4160052 C161.052238,28.5625885 162.454279,27.3434219 163.611685,25.9726615 L163.82504,25.7288281 C164.282227,25.8507448 164.830852,26.3384115 165.013727,26.825276 C162.636352,29.5988802 159.436842,32.1583281 156.206852,32.5858385 C156.176373,32.5858385 156.145894,32.6163177 156.115415,32.6163177 C155.810623,32.6459948 155.53631,32.676474 155.231519,32.676474 C152.3368,32.676474 151.756894,30.117026 151.756894,30.117026" id="Fill-21" fill="#77828C" mask="url(#mask-2)"></path>
                    <path d="M174.463472,28.9895375 C173.731972,30.2391833 174.128201,30.72685 174.829222,30.72685 C176.139826,30.72685 178.028732,29.2943292 179.94892,26.2768917 L182.41693,21.9496521 C183.971368,19.0854125 180.588982,18.3234333 178.882149,21.2791104 L174.463472,28.9895375 Z M188.085253,25.7290687 C188.512764,25.9119438 189.060586,26.3996104 189.273941,26.8255167 C186.652732,29.8734333 183.636899,32.6767146 181.015691,32.6767146 C179.400295,32.6767146 178.424961,31.8232979 178.272566,30.6049333 C176.749409,31.8537771 175.164493,32.6767146 173.884368,32.6767146 C171.32492,32.6767146 170.380066,30.5126937 171.721149,28.1666 L176.170305,20.4866521 C177.510586,18.1710375 179.887961,16.8299542 181.594795,16.8299542 C183.667378,16.8299542 185.038139,18.6891833 184.916222,20.0302667 L186.713691,20.0302667 L181.594795,28.9895375 C180.863295,30.2391833 181.259524,30.72685 181.960545,30.72685 C183.361784,30.72685 185.586764,28.6237875 187.872701,25.9721 L188.085253,25.7290687 Z" id="Fill-22" fill="#77828C" mask="url(#mask-2)"></path>
                    <path d="M57.7463104,141.040339 C60.2448,139.943089 62.3478625,137.292203 63.7491021,134.884349 L68.6867271,126.321307 C70.2403625,123.456266 68.0466646,123.334349 66.3398313,126.290828 L57.7463104,141.040339 Z M56.7404979,143.264516 L56.4661854,143.264516 L52.8704458,149.420505 C51.5598417,151.645484 52.8704458,152.194109 53.9668938,150.304401 L56.6185812,145.641891 C57.2586438,144.453203 57.2586438,143.599786 56.7404979,143.264516 L56.7404979,143.264516 Z M68.5944875,136.835016 C69.0219979,137.017891 69.5698208,137.505557 69.7839771,137.932266 C66.1874354,142.107109 61.9821125,143.021484 58.8732375,143.204359 C59.1780292,144.087453 59.14755,145.276141 58.5074875,146.40387 L56.1309146,150.578714 C52.7485292,156.521349 47.8718625,153.138964 50.3101958,148.903161 L63.4138313,126.138432 C67.5589979,118.946151 74.4152062,120.988255 70.7593104,127.326318 L65.6692896,136.133995 C64.0538938,138.906797 61.4334875,140.705068 59.2694667,141.832797 C61.7992375,141.649922 65.2433833,140.705068 68.3819354,137.078849 L68.5944875,136.835016 Z" id="Fill-23" fill="#77828C" mask="url(#mask-2)"></path>
                    <path d="M75.4837417,137.04829 L75.6361375,137.04829 L77.9517521,133.0868 C79.8727417,129.79505 76.824825,128.301571 74.5998458,132.080987 L73.0758875,134.670915 L70.6688354,138.845758 C68.7799292,142.137508 72.4061479,142.625175 73.898825,140.064925 L73.9301063,140.003967 C73.7464292,139.699175 73.6253146,139.334227 73.6253146,138.937196 C73.6253146,137.900904 74.44745,137.04829 75.4837417,137.04829 L75.4837417,137.04829 Z M76.3981167,141.009779 C72.1310333,146.40379 64.4823667,143.874821 68.4751375,137.01781 L69.8458979,134.670915 L71.4003354,131.959071 C73.2282833,128.789237 75.1179917,127.813904 77.556325,127.813904 C80.5424813,127.813904 82.3102729,130.953258 80.3900854,134.274685 L77.4039292,139.424862 C78.9880438,139.394383 80.7558354,138.633206 82.1875542,137.078769 L82.4017104,136.834935 C82.8276167,137.01781 83.3770438,137.505477 83.5895958,137.932185 C81.9750021,139.851571 78.9880438,141.009779 77.0991375,141.009779 L76.3981167,141.009779 Z" id="Fill-24" fill="#77828C" mask="url(#mask-2)"></path>
                    <path d="M89.4427188,133.452229 C89.8084688,132.812167 89.6560729,132.172104 89.2598438,131.653958 L88.8331354,131.135812 C86.3041667,134.579958 85.1146771,136.164073 83.5915208,137.931865 C83.1343333,137.627073 82.6771458,137.230844 82.4036354,136.834615 C84.4754167,134.397083 86.365125,131.714917 87.7663646,129.734573 L87.4920521,129.368823 C86.365125,127.905823 86.5175208,126.107552 88.3157917,124.492958 L89.9608646,126.290427 C89.3208021,126.90001 89.3208021,127.540073 89.7779896,128.119177 L91.5457813,130.251917 C92.5812708,131.501563 93.1002188,132.629292 92.0021667,134.549479 L88.8331354,140.095885 C88.1016354,141.344729 88.4978646,141.832396 89.1988854,141.832396 C90.6009271,141.832396 92.8259063,139.730135 95.1110417,137.078448 L95.3243958,136.834615 C95.7511042,137.01749 96.2997292,137.505156 96.5122813,137.931865 C93.891875,140.978979 90.8752396,143.783062 88.2548333,143.783062 C85.6945833,143.783062 84.7497292,141.619042 86.0900104,139.272948 L89.4427188,133.452229 Z" id="Fill-25" fill="#77828C" mask="url(#mask-2)"></path>
                    <path d="M105.962908,140.095725 C105.231408,141.345371 105.627638,141.833037 106.328658,141.833037 C107.639263,141.833037 109.528169,140.400517 111.448356,137.383881 L113.917169,133.05584 C115.470804,130.1916 112.088419,129.429621 110.382387,132.385298 L105.962908,140.095725 Z M119.58469,136.835256 C120.0122,137.018131 120.560023,137.505798 120.774179,137.931704 C118.152971,140.979621 115.136335,143.782902 112.515127,143.782902 C110.899731,143.782902 109.924398,142.929485 109.772002,141.711121 C108.248846,142.959965 106.663929,143.782902 105.383804,143.782902 C102.824356,143.782902 101.879502,141.618881 103.220585,139.272787 L107.669742,131.59284 C109.010825,129.277225 111.387398,127.936142 113.094231,127.936142 C115.166815,127.936142 116.538377,129.795371 116.415658,131.136454 L118.213127,131.136454 L113.094231,140.095725 C112.362731,141.345371 112.75896,141.833037 113.459981,141.833037 C114.862023,141.833037 117.0862,139.729975 119.372138,137.078287 L119.58469,136.835256 Z" id="Fill-26" fill="#77828C" mask="url(#mask-2)"></path>
                    <path d="M135.008672,138.632885 L138.238661,133.086479 C138.666172,132.354979 138.848245,131.714917 138.848245,131.196771 C138.848245,130.344156 138.36138,129.82601 137.660359,129.82601 C135.861286,129.82601 133.667589,133.513187 133.667589,135.767844 C133.667589,137.047969 134.185734,138.023302 135.008672,138.632885 L135.008672,138.632885 Z M134.094297,140.186521 C132.936089,139.455823 132.326505,138.267135 132.083474,136.895573 L130.954943,138.84624 C130.589193,139.516781 130.40712,140.034927 130.40712,140.491312 C130.40712,141.284573 130.985422,141.710479 131.686443,141.710479 C132.479703,141.710479 133.455036,141.222812 134.094297,140.186521 L134.094297,140.186521 Z M136.928859,128.515406 C137.56812,128.088698 138.238661,127.814385 139.001443,127.814385 C140.768432,127.814385 141.865682,129.033552 141.865682,130.648146 C141.865682,131.653958 141.469453,132.873125 140.676193,134.275167 L137.690839,139.425344 C139.244474,139.394865 141.041943,138.663365 142.475266,137.078448 L142.687818,136.834615 C143.114526,137.01749 143.663151,137.505156 143.877307,137.931865 C142.261911,139.852052 139.274953,141.009458 137.386047,141.009458 C137.141411,141.009458 136.928859,141.009458 136.685026,140.978979 C135.100109,143.021083 133.058005,143.935458 131.290214,143.935458 C129.248911,143.935458 127.634318,142.716292 127.634318,140.553073 C127.634318,139.54726 127.969589,138.358573 128.761245,137.01749 L137.721318,121.536479 L140.951307,121.536479 L136.928859,128.515406 Z" id="Fill-27" fill="#77828C" mask="url(#mask-2)"></path>
                    <path d="M146.4078,135.950959 C147.595685,136.377668 149.63779,136.438626 151.161748,133.847897 L151.618935,133.056241 C153.508644,129.764491 150.277852,129.247147 148.449904,132.385699 L146.4078,135.950959 Z M145.493425,137.505397 L145.188633,138.054022 C143.725633,140.61347 144.883842,141.832636 146.833706,141.832636 C149.059488,141.832636 151.984685,139.729574 154.270623,137.078689 L154.483175,136.834855 C154.910685,137.01773 155.458508,137.505397 155.671863,137.932105 C153.050654,140.97922 149.485394,143.783303 145.889654,143.783303 C142.141519,143.783303 140.434685,140.674428 142.415029,137.292043 L145.737258,131.593241 C147.078342,129.276824 149.119644,127.936543 151.679894,127.936543 C154.270623,127.936543 155.915696,130.130241 154.209665,133.056241 L153.751675,133.847897 C151.375102,137.962584 147.534727,138.358814 145.493425,137.505397 L145.493425,137.505397 Z" id="Fill-28" fill="#77828C" mask="url(#mask-2)"></path>
                    <path d="M158.202516,135.950959 C159.391203,136.377668 161.432505,136.438626 162.957266,133.847897 L163.413651,133.056241 C165.303359,129.764491 162.072568,129.247147 160.24462,132.385699 L158.202516,135.950959 Z M157.288141,137.505397 L156.983349,138.054022 C155.521151,140.61347 156.679359,141.832636 158.629224,141.832636 C160.854203,141.832636 163.779401,139.729574 166.065339,137.078689 L166.277891,136.834855 C166.705401,137.01773 167.253224,137.505397 167.46738,137.932105 C164.846172,140.97922 161.280911,143.783303 157.68437,143.783303 C153.936234,143.783303 152.230203,140.674428 154.210547,137.292043 L157.531974,131.593241 C158.873057,129.276824 160.915161,127.936543 163.474609,127.936543 C166.065339,127.936543 167.710411,130.130241 166.00438,133.056241 L165.547193,133.847897 C163.169818,137.962584 159.330245,138.358814 157.288141,137.505397 L157.288141,137.505397 Z" id="Fill-29" fill="#77828C" mask="url(#mask-2)"></path>
                    <path d="M173.319942,133.452229 C173.68489,132.812167 173.533296,132.172104 173.136265,131.653958 L172.709556,131.135812 C170.180588,134.579958 168.9919,136.164073 167.468744,137.931865 C167.011556,137.627073 166.553567,137.230844 166.280056,136.834615 C168.35264,134.397083 170.241546,131.714917 171.643588,129.734573 L171.369275,129.368823 C170.241546,127.905823 170.394744,126.107552 172.192213,124.492958 L173.838088,126.290427 C173.198025,126.90001 173.198025,127.540073 173.655213,128.119177 L175.422202,130.251917 C176.458494,131.501563 176.97664,132.629292 175.87939,134.549479 L172.709556,140.095885 C171.978858,141.344729 172.374285,141.832396 173.075306,141.832396 C174.477348,141.832396 176.702327,139.730135 178.987463,137.078448 L179.200817,136.834615 C179.627525,137.01749 180.17615,137.505156 180.389504,137.931865 C177.769098,140.978979 174.75166,143.783062 172.131254,143.783062 C169.571004,143.783062 168.62615,141.619042 169.967233,139.272948 L173.319942,133.452229 Z" id="Fill-30" fill="#77828C" mask="url(#mask-2)"></path>
                    <path d="M181.610997,138.845999 L191.57608,121.536239 L194.745111,121.536239 L184.810507,138.845999 L181.610997,138.845999 Z M181.458601,140.095645 C182.494893,140.095645 183.317028,140.918582 183.317028,141.954072 C183.317028,142.990364 182.494893,143.782822 181.458601,143.782822 C180.422309,143.782822 179.629851,142.990364 179.629851,141.954072 C179.629851,140.918582 180.422309,140.095645 181.458601,140.095645 L181.458601,140.095645 Z" id="Fill-31" fill="#77828C" mask="url(#mask-2)"></path>
                    <path d="M245.290478,19.5286437 C244.941572,15.2383 241.958624,11.6995083 237.956228,10.5308729 C236.263832,4.45910208 230.706197,-0.00048125 224.095426,-0.00048125 C216.141166,-0.00048125 209.692416,6.44826875 209.692416,14.4025292 C209.692416,14.4554667 209.700436,14.5059979 209.700436,14.5589354 C205.834395,14.6527792 202.512968,16.4213729 200.871103,18.9744042 C197.875322,19.6625917 195.638311,22.3399458 195.638311,25.5450708 C195.638311,29.2723521 198.658957,32.2938 202.386239,32.2938 L242.24577,32.2938 C245.973051,32.2938 248.993697,29.2723521 248.993697,25.5450708 C248.993697,22.9150396 247.48578,20.6419354 245.290478,19.5286437" id="Fill-32" fill="#77828C" mask="url(#mask-2)"></path>
                    <path d="M3.70353958,19.5286437 C4.05244583,15.2383 7.03539375,11.6995083 11.0377896,10.5308729 C12.7301854,4.45910208 18.2878208,-0.00048125 24.8985917,-0.00048125 C32.8528521,-0.00048125 39.3016021,6.44826875 39.3016021,14.4025292 C39.3016021,14.4554667 39.2935813,14.5059979 39.2935813,14.5589354 C43.1596229,14.6527792 46.48105,16.4213729 48.1229146,18.9744042 C51.1186958,19.6625917 53.3557063,22.3399458 53.3557063,25.5450708 C53.3557063,29.2723521 50.3350604,32.2938 46.6077792,32.2938 L6.74824792,32.2938 C3.02096667,32.2938 0.000320833333,29.2723521 0.000320833333,25.5450708 C0.000320833333,22.9150396 1.5082375,20.6419354 3.70353958,19.5286437" id="Fill-33" fill="#77828C" mask="url(#mask-2)"></path>
                    <path d="M8.30693646,45.9722885 L8.30693646,45.9722885 C7.18081146,45.9722885 6.26723854,45.0587156 6.26723854,43.9325906 L6.26723854,37.3410698 C6.26723854,36.2141427 7.18081146,35.3013719 8.30693646,35.3013719 C9.43386354,35.3013719 10.3474365,36.2141427 10.3474365,37.3410698 L10.3474365,43.9325906 C10.3474365,45.0587156 9.43386354,45.9722885 8.30693646,45.9722885" id="Fill-34" fill="#89BAD9" mask="url(#mask-2)"></path>
                    <path d="M16.310525,50.6802771 L16.310525,50.6802771 C15.1844,50.6802771 14.2708271,49.7667042 14.2708271,48.6405792 L14.2708271,42.0490583 C14.2708271,40.9221313 15.1844,40.0093604 16.310525,40.0093604 C17.43665,40.0093604 18.351025,40.9221313 18.351025,42.0490583 L18.351025,48.6405792 C18.351025,49.7667042 17.43665,50.6802771 16.310525,50.6802771" id="Fill-35" fill="#89BAD9" mask="url(#mask-2)"></path>
                    <path d="M42.3609885,45.9722885 L42.3609885,45.9722885 C41.2340615,45.9722885 40.3204885,45.0587156 40.3204885,43.9325906 L40.3204885,37.3410698 C40.3204885,36.2141427 41.2340615,35.3013719 42.3609885,35.3013719 C43.4871135,35.3013719 44.4006865,36.2141427 44.4006865,37.3410698 L44.4006865,43.9325906 C44.4006865,45.0587156 43.4871135,45.9722885 42.3609885,45.9722885" id="Fill-36" fill="#89BAD9" mask="url(#mask-2)"></path>
                    <path d="M50.3638552,50.6802771 L50.3638552,50.6802771 C49.2377302,50.6802771 48.3241573,49.7667042 48.3241573,48.6405792 L48.3241573,42.0490583 C48.3241573,40.9221313 49.2377302,40.0093604 50.3638552,40.0093604 C51.4907823,40.0093604 52.4043552,40.9221313 52.4043552,42.0490583 L52.4043552,48.6405792 C52.4043552,49.7667042 51.4907823,50.6802771 50.3638552,50.6802771" id="Fill-37" fill="#89BAD9" mask="url(#mask-2)"></path>
                    <polygon id="Fill-38" fill="#FF931E" mask="url(#mask-2)" points="28.3159479 46.3647479 32.7097604 33.6533312 24.9159167 33.6533312 21.5680208 53.4262896 29.414 52.4846437 30.8264688 68.6482271 36.0055208 44.32505"></polygon>
                    <path d="M246.629877,45.9722885 L246.629877,45.9722885 C247.756804,45.9722885 248.670377,45.0587156 248.670377,43.9325906 L248.670377,37.3410698 C248.670377,36.2141427 247.756804,35.3013719 246.629877,35.3013719 C245.503752,35.3013719 244.590179,36.2141427 244.590179,37.3410698 L244.590179,43.9325906 C244.590179,45.0587156 245.503752,45.9722885 246.629877,45.9722885" id="Fill-39" fill="#89BAD9" mask="url(#mask-2)"></path>
                    <path d="M238.62701,50.6802771 L238.62701,50.6802771 C239.753135,50.6802771 240.666708,49.7667042 240.666708,48.6405792 L240.666708,42.0490583 C240.666708,40.9221313 239.753135,40.0093604 238.62701,40.0093604 C237.500083,40.0093604 236.58651,40.9221313 236.58651,42.0490583 L236.58651,48.6405792 C236.58651,49.7667042 237.500083,50.6802771 238.62701,50.6802771" id="Fill-40" fill="#89BAD9" mask="url(#mask-2)"></path>
                    <path d="M212.576547,45.9722885 L212.576547,45.9722885 C213.702672,45.9722885 214.616245,45.0587156 214.616245,43.9325906 L214.616245,37.3410698 C214.616245,36.2141427 213.702672,35.3013719 212.576547,35.3013719 C211.44962,35.3013719 210.536047,36.2141427 210.536047,37.3410698 L210.536047,43.9325906 C210.536047,45.0587156 211.44962,45.9722885 212.576547,45.9722885" id="Fill-41" fill="#89BAD9" mask="url(#mask-2)"></path>
                    <path d="M204.572958,50.6802771 L204.572958,50.6802771 C205.699885,50.6802771 206.613458,49.7667042 206.613458,48.6405792 L206.613458,42.0490583 C206.613458,40.9221313 205.699885,40.0093604 204.572958,40.0093604 C203.446833,40.0093604 202.53326,40.9221313 202.53326,42.0490583 L202.53326,48.6405792 C202.53326,49.7667042 203.446833,50.6802771 204.572958,50.6802771" id="Fill-42" fill="#89BAD9" mask="url(#mask-2)"></path>
                    <polygon id="Fill-43" fill="#FF931E" mask="url(#mask-2)" points="229.393668 33.496524 222.227053 33.6529302 226.621668 46.3643469 218.932095 44.324649 224.111147 68.6486281 225.522814 52.4850448 233.369595 53.4266906"></polygon>
                </g>
            </g>
        </g>
    </g>
</svg>