<?xml version="1.0" encoding="UTF-8"?>
<svg width="275px" height="154px" viewBox="0 0 275 154" version="1.1" xmlns="http://www.w3.org/2000/svg" xmlns:xlink="http://www.w3.org/1999/xlink">
    <title>great-day</title>
    <defs>
        <polygon id="path-1" points="0 153.638467 274.433867 153.638467 274.433867 0 0 0"></polygon>
    </defs>
    <g id="Page-1" stroke="none" stroke-width="1" fill="none" fill-rule="evenodd">
        <g id="Desktop" transform="translate(-348.000000, -937.000000)">
            <g id="great-day" transform="translate(348.000000, 937.000000)">
                <path d="M15.2625,81.54322 L30.6837667,81.54322 L30.6837667,83.23942 C30.6837667,91.1183533 29.5089667,96.7884867 27.1601,100.250553 C24.5978333,104.030887 20.8087,105.920687 15.7927,105.920687 C10.8639667,105.920687 6.99563333,104.066087 4.18623333,100.356153 C1.39516667,96.6117533 0.000366666667,91.4710867 0.000366666667,84.9348867 C0.000366666667,78.3106867 1.4047,73.09082 4.21336667,69.2752867 C7.02203333,65.45902 10.8639667,63.55162 15.7391667,63.55162 C22.2049667,63.55162 26.8946333,66.9256867 29.8096333,73.67382 L19.1044333,77.5949533 C18.9453,76.3057533 18.5786333,75.2856867 18.0051667,74.5347533 C17.4309667,73.7845533 16.7108333,73.4083533 15.8455,73.4083533 C12.8065667,73.4083533 11.2878333,77.5861533 11.2878333,85.9417533 C11.2878333,89.4925533 11.6237,92.0716867 12.2947,93.6791533 C12.9657,95.28662 14.0349,96.0903533 15.5008333,96.0903533 C16.0838333,96.0903533 16.6140333,95.9495533 17.0907,95.6664867 C17.5681,95.3841533 17.9692333,94.9866867 18.2963,94.4740867 C18.6233667,93.96222 18.8793,93.33962 19.0648333,92.6062867 C19.2503667,91.8729533 19.3427667,91.05602 19.3427667,90.1547533 L15.2625,90.1547533 L15.2625,81.54322 Z" id="Fill-1" fill="#034C8C"></path>
                <path d="M46.44992,83.2390533 L47.1920533,83.2390533 C48.4636533,83.2390533 49.52332,82.7535867 50.3717867,81.78192 C51.21952,80.8102533 51.6433867,79.5738533 51.6433867,78.0719867 C51.6433867,75.0161867 50.04472,73.48792 46.8473867,73.48792 L46.44992,73.48792 L46.44992,83.2390533 Z M64.49432,105.20532 L52.5446533,105.20532 L47.08572,90.6317867 C47.03292,90.3846533 46.9397867,90.05832 46.8077867,89.65132 C46.6750533,89.2450533 46.51152,88.7595867 46.3171867,88.1941867 L46.39712,90.89652 L46.39712,105.20532 L35.4007867,105.20532 L35.4007867,64.2933867 L46.7146533,64.2933867 C51.6961867,64.2933867 55.42372,65.2738533 57.89652,67.2347867 C61.0410533,69.74352 62.61332,73.31192 62.61332,77.9392533 C62.61332,82.88632 60.5020533,86.3043867 56.2802533,88.1941867 L64.49432,105.20532 Z" id="Fill-3" fill="#034C8C"></path>
                <polygon id="Fill-5" fill="#034C8C" points="68.1513067 105.205393 68.1513067 64.29346 88.68684 64.29346 88.68684 73.91186 79.20044 73.91186 79.20044 79.87386 87.7063733 79.87386 87.7063733 89.1211933 79.20044 89.1211933 79.20044 95.37506 88.68684 95.37506 88.68684 105.205393"></polygon>
                <path d="M109.328267,91.24126 L108.612533,86.47166 C108.594933,86.4547933 108.559733,86.2157267 108.506933,85.75666 C108.471733,85.3679933 108.2862,83.83166 107.950333,81.14546 C107.915133,80.8455267 107.871133,80.4355933 107.8176,79.9141933 C107.7648,79.3927933 107.693667,78.73426 107.605667,77.9393267 L107.261733,74.0709933 C107.2258,74.44206 107.1774,74.8571267 107.1158,75.3161933 C107.053467,75.7759933 106.987467,76.2797933 106.917067,76.82686 C106.793133,77.92246 106.705133,78.68146 106.652333,79.1053267 C106.5988,79.5291933 106.5636,79.78586 106.546,79.87386 L105.777467,84.8289933 L104.665,91.24126 L109.328267,91.24126 Z M122.868533,105.205393 L111.448333,105.205393 L110.627,100.011927 L103.180733,100.011927 L102.2802,105.205393 L90.8592667,105.205393 L100.690333,64.29346 L114.203467,64.29346 L122.868533,105.205393 Z" id="Fill-7" fill="#034C8C"></path>
                <polygon id="Fill-9" fill="#034C8C" points="140.3567 105.205393 129.307567 105.205393 129.307567 74.0973933 123.212833 74.0973933 123.212833 64.29346 146.689767 64.29346 146.689767 74.0973933 140.3567 74.0973933"></polygon>
                <path d="M176.92312,95.32182 C180.880187,95.1274867 182.85872,91.71822 182.85872,85.09402 C182.85872,81.8262867 182.35492,79.2471533 181.348053,77.35662 C180.341187,75.4484867 178.980853,74.4951533 177.267787,74.4951533 L176.92312,74.4951533 L176.92312,95.32182 Z M165.873987,105.205687 L165.873987,64.29302 L175.412453,64.29302 C180.871387,64.29302 185.119587,65.7596867 188.157787,68.6922867 C192.150053,72.52542 194.146187,77.88682 194.146187,84.7757533 C194.146187,91.5590867 192.45952,96.7972867 189.085453,100.488887 C186.205653,103.63342 181.913453,105.205687 176.207387,105.205687 L165.873987,105.205687 Z" id="Fill-11" fill="#034C8C"></path>
                <path d="M213.754493,91.24126 L213.03876,86.47166 C213.02116,86.4547933 212.98596,86.2157267 212.93316,85.75666 C212.897227,85.3679933 212.711693,83.83166 212.37656,81.14546 C212.340627,80.8455267 212.29736,80.4355933 212.243827,79.9141933 C212.191027,79.3927933 212.119893,78.73426 212.031893,77.9393267 L211.68796,74.0709933 C211.652027,74.44206 211.603627,74.8571267 211.542027,75.3161933 C211.479693,75.7759933 211.413693,76.2797933 211.343293,76.82686 C211.21936,77.92246 211.13136,78.68146 211.07856,79.1053267 C211.025027,79.5291933 210.989093,79.78586 210.972227,79.87386 L210.203693,84.8289933 L209.091227,91.24126 L213.754493,91.24126 Z M227.29476,105.205393 L215.87456,105.205393 L215.053227,100.011927 L207.60696,100.011927 L206.706427,105.205393 L195.285493,105.205393 L205.11656,64.29346 L218.629693,64.29346 L227.29476,105.205393 Z" id="Fill-13" fill="#034C8C"></path>
                <path d="M248.837013,105.205393 L237.78788,105.205393 L237.78788,87.8759933 L227.63928,64.29346 L239.165813,64.29346 L241.152413,70.36106 C241.54108,71.5453933 241.890147,72.68426 242.199613,73.7791267 C242.508347,74.87546 242.78628,75.9255933 243.034147,76.93246 C243.440413,75.4313267 243.793147,74.1377267 244.093813,73.0509267 C244.393747,71.96486 244.659213,71.0863267 244.888747,70.4145933 L246.90248,64.29346 L258.349813,64.29346 L248.837013,87.8759933 L248.837013,105.205393 Z" id="Fill-15" fill="#034C8C"></path>
                <mask id="mask-2" fill="white">
                    <use xlink:href="#path-1"></use>
                </mask>
                <g id="Clip-18"></g>
                <path d="M262.986533,90.552 L273.770933,90.552 L273.770933,61.9615333 L262.986533,61.9615333 L262.986533,90.552 Z M274.433867,99.6673333 C274.433867,101.363533 273.814933,102.803067 272.578533,103.986667 C271.3238,105.187867 269.866667,105.788467 268.2064,105.788467 C266.546133,105.788467 265.088267,105.187867 263.834267,103.986667 C262.633067,102.732667 262.032467,101.266733 262.032467,99.5881333 C262.032467,97.8750667 262.633067,96.4172 263.834267,95.216 C265.0538,93.9972 266.510933,93.3878 268.2064,93.3878 C269.9554,93.3878 271.430133,93.9972 272.632067,95.216 C273.832533,96.4172 274.433867,97.9014667 274.433867,99.6673333 L274.433867,99.6673333 Z" id="Fill-17" fill="#034C8C" mask="url(#mask-2)"></path>
                <path d="M82.7312933,38.5135667 C80.7534933,40.5192333 81.6730933,42.8607667 84.3754267,42.8607667 C86.4646933,42.8607667 88.1088267,41.1601667 89.50216,38.7365 L97.7492267,24.3316333 C96.4394933,25.0283 94.82396,25.4184333 93.2634267,25.4184333 C92.5110267,25.4184333 90.7554267,25.3069667 90.08736,25.3069667 C87.6072267,25.3069667 85.9080933,26.8117667 85.9080933,28.3437 C85.9080933,29.2354333 86.2974933,30.0435667 87.3006933,30.6009 L85.8794933,32.3843667 C84.3196933,31.5483667 83.5672933,30.0985667 83.5672933,28.6223667 C83.5672933,25.4184333 86.49256,23.0776333 90.7004267,23.0776333 C91.3134933,23.0776333 92.9568933,23.1055 93.5978267,23.1055 C96.6902933,23.1055 99.2818933,21.6850333 99.2818933,21.6850333 L100.786693,24.2201667 L100.758827,24.2201667 L92.0658933,39.2938333 C89.6136267,43.5288333 86.91056,45.1451 84.0410267,45.1451 C79.6666933,45.1451 77.43736,40.3249 81.1714933,37.0087667 L82.7312933,38.5135667 Z" id="Fill-19" fill="#034C8C" mask="url(#mask-2)"></path>
                <path d="M103.268953,36.7583333 L103.408287,36.7583333 L105.52542,33.1364 C107.28102,30.1268 104.494353,28.7620667 102.46082,32.2168 L101.067487,34.5847333 L98.8667533,38.4024667 C97.13902,41.4113333 100.455153,41.8572 101.819887,39.5171333 L101.847753,39.4614 C101.680553,39.1827333 101.569087,38.8483333 101.569087,38.4853333 C101.569087,37.5378667 102.321487,36.7583333 103.268953,36.7583333 L103.268953,36.7583333 Z M104.104953,40.3802667 C100.20362,45.3119333 93.2105533,42.9997333 96.8603533,36.7304667 L98.1143533,34.5847333 L99.5355533,32.1053333 C101.20682,29.2072 102.934553,28.3154667 105.163153,28.3154667 C107.894087,28.3154667 109.510353,31.1857333 107.754753,34.2232 L105.024553,38.9319333 C106.472887,38.9040667 108.089153,38.2074 109.398153,36.7862 L109.593953,36.5632667 C109.983353,36.7304667 110.484953,37.1763333 110.68002,37.5664667 C109.20382,39.3213333 106.472887,40.3802667 104.745887,40.3802667 L104.104953,40.3802667 Z" id="Fill-20" fill="#034C8C" mask="url(#mask-2)"></path>
                <path d="M110.82104,39.5448533 C110.15224,40.6873867 110.514507,41.13252 111.15544,41.13252 C112.38084,41.13252 114.164307,39.7677867 115.919907,36.8982533 L118.121373,33.1083867 L118.093507,33.1083867 C119.513973,30.48892 116.421507,29.7922533 114.860973,32.49532 L110.82104,39.5448533 Z M123.27524,36.5638533 C123.665373,36.73032 124.166973,37.17692 124.36204,37.56632 C121.96624,40.3529867 119.20744,42.9159867 116.810907,42.9159867 C115.334707,42.9159867 114.442973,42.13572 114.30364,41.0217867 C112.91104,42.1635867 111.461973,42.9159867 110.291573,42.9159867 C107.950773,42.9159867 107.08764,40.9374533 108.313773,38.7924533 L112.38084,31.7707867 C113.606973,29.6536533 115.780573,28.42752 117.341107,28.42752 C118.53864,28.42752 119.486107,29.1241867 119.987707,29.93232 L124.250573,22.5762533 L127.148707,22.5762533 L117.341107,39.5448533 C116.672307,40.6873867 117.034573,41.13252 117.675507,41.13252 C118.95664,41.13252 120.990907,39.2104533 123.080173,36.7860533 L123.27524,36.5638533 Z" id="Fill-21" fill="#034C8C" mask="url(#mask-2)"></path>
                <path d="M124.503353,39.5448533 C123.834553,40.6873867 124.19682,41.13252 124.837753,41.13252 C126.035287,41.13252 127.76302,39.82352 129.51862,37.06472 L131.77582,33.1083867 C133.196287,30.48892 130.10382,29.7922533 128.543287,32.49532 L124.503353,39.5448533 Z M136.957553,36.5638533 C137.347687,36.73032 137.849287,37.17692 138.044353,37.56632 C135.648553,40.3529867 132.889753,42.9159867 130.49322,42.9159867 C129.01702,42.9159867 128.125287,42.13572 127.985953,41.0217867 C126.593353,42.1635867 125.144287,42.9159867 123.973887,42.9159867 C121.633087,42.9159867 120.769953,40.9374533 121.996087,38.7924533 L126.063153,31.7707867 C127.289287,29.6536533 129.462887,28.42752 131.02342,28.42752 C132.91762,28.42752 134.17162,30.1266533 134.060153,31.3527867 L135.703553,31.3527867 L131.02342,39.5448533 C130.35462,40.6873867 130.716887,41.13252 131.35782,41.13252 C132.638953,41.13252 134.67322,39.2104533 136.762487,36.7860533 L136.957553,36.5638533 Z" id="Fill-22" fill="#034C8C" mask="url(#mask-2)"></path>
                <path d="M137.18276,47.5971467 L138.519627,45.2563467 C136.291027,46.1202133 135.59436,46.98408 135.59436,47.7357467 C135.59436,48.5160133 136.569693,48.6832133 137.18276,47.5971467 M142.894693,37.6216133 L148.021427,28.7057467 L150.918827,28.7057467 L142.97756,42.30248 C145.262627,41.32788 147.296893,39.5451467 149.692693,36.7863467 L149.88776,36.5634133 C150.277893,36.7306133 150.779493,37.17648 150.97456,37.56588 C147.798493,41.24428 144.844627,43.30568 141.83576,44.2531467 L139.606427,48.07088 C137.51716,51.63708 133.254293,51.05188 133.254293,48.2652133 C133.254293,46.0923467 135.705827,44.47608 139.634293,43.30568 L141.222693,40.57548 C139.91296,41.74588 138.325293,42.9155467 136.93196,42.9155467 C135.00916,42.9155467 134.341093,41.1042133 135.817293,38.5412133 L141.50136,28.7057467 L144.39876,28.7057467 L138.74256,38.56908 C138.380293,39.1821467 137.656493,40.2689467 138.380293,40.57548 C138.93836,40.82628 140.66536,39.6837467 142.894693,37.6216133" id="Fill-23" fill="#034C8C" mask="url(#mask-2)"></path>
                <path d="M166.1902,23.85768 C167.137667,23.85768 167.889333,24.61008 167.889333,25.5575467 C167.889333,26.5050133 167.137667,27.2295467 166.1902,27.2295467 C165.242733,27.2295467 164.5182,26.5050133 164.5182,25.5575467 C164.5182,24.61008 165.242733,23.85768 166.1902,23.85768 L166.1902,23.85768 Z M165.549267,36.5634133 C165.9394,36.7306133 166.441,37.17648 166.635333,37.56588 C164.239533,40.3525467 161.481467,42.9155467 159.084933,42.9155467 C156.744867,42.9155467 155.881,40.9377467 157.107133,38.7920133 L162.9298,28.7057467 L165.827933,28.7057467 L159.6144,39.5451467 C158.9456,40.6869467 159.307867,41.1328133 159.9488,41.1328133 C161.230667,41.1328133 163.2642,39.2107467 165.3542,36.7863467 L165.549267,36.5634133 Z" id="Fill-24" fill="#034C8C" mask="url(#mask-2)"></path>
                <path d="M164.296,40.5753333 L166.107333,39.6278667 C166.107333,39.6278667 166.497467,40.6868 167.4728,40.6868 C170.230867,40.6868 169.6178,35.2814 170.760333,32.2725333 C169.729267,33.638 168.280933,35.6715333 166.6368,37.5657333 C166.2188,37.2878 165.8008,36.9248 165.55,36.5632667 C168.168733,33.4986667 170.7882,29.7095333 171.986467,28.0646667 L174.159333,29.2350667 C172.3766,32.9413333 172.571667,37.1763333 171.652067,39.9344 C172.793867,39.1548667 174.075733,38.0402 175.134667,36.7862 L175.329733,36.5632667 C175.747733,36.6747333 176.249333,37.1206 176.416533,37.5657333 C174.242933,40.1016 171.317667,42.4424 168.3638,42.8325333 C168.335933,42.8325333 168.308067,42.8604 168.280933,42.8604 C168.002267,42.8875333 167.750733,42.9154 167.4728,42.9154 C164.825467,42.9154 164.296,40.5753333 164.296,40.5753333" id="Fill-25" fill="#034C8C" mask="url(#mask-2)"></path>
                <path d="M185.056373,39.5448533 C184.387573,40.6873867 184.74984,41.13252 185.390773,41.13252 C186.588307,41.13252 188.31604,39.82352 190.07164,37.06472 L192.328107,33.1083867 C193.749307,30.48892 190.65684,29.7922533 189.096307,32.49532 L185.056373,39.5448533 Z M197.510573,36.5638533 C197.90144,36.73032 198.402307,37.17692 198.597373,37.56632 C196.20084,40.3529867 193.443507,42.9159867 191.046973,42.9159867 C189.57004,42.9159867 188.678307,42.13572 188.538973,41.0217867 C187.146373,42.1635867 185.697307,42.9159867 184.526907,42.9159867 C182.186107,42.9159867 181.322973,40.9374533 182.549107,38.7924533 L186.616173,31.7707867 C187.842307,29.6536533 190.015907,28.42752 191.57644,28.42752 C193.471373,28.42752 194.72464,30.1266533 194.613173,31.3527867 L196.256573,31.3527867 L191.57644,39.5448533 C190.90764,40.6873867 191.269907,41.13252 191.91084,41.13252 C193.191973,41.13252 195.22624,39.2104533 197.31624,36.7860533 L197.510573,36.5638533 Z" id="Fill-26" fill="#034C8C" mask="url(#mask-2)"></path>
                <path d="M78.3431,141.990933 C80.6281667,140.988467 82.5502333,138.564067 83.8321,136.3626 L88.3457667,128.533533 C89.7669667,125.914067 87.7605667,125.803333 86.2000333,128.505667 L78.3431,141.990933 Z M77.4235,144.024467 L77.1727,144.024467 L73.8851667,149.6528 C72.6869,151.6878 73.8851667,152.188667 74.8883667,150.461667 L77.3120333,146.198067 C77.8972333,145.112 77.8972333,144.331 77.4235,144.024467 L77.4235,144.024467 Z M88.2621667,138.146067 C88.6523,138.313267 89.1539,138.759133 89.3489667,139.149267 C86.0607,142.966267 82.2158333,143.802267 79.3741667,143.969467 C79.6528333,144.7776 79.6249667,145.863667 79.0397667,146.894733 L76.8661667,150.712467 C73.7737,156.145733 69.3157667,153.052533 71.5443667,149.1798 L83.5255667,128.366333 C87.3147,121.790533 93.5839667,123.6576 90.2407,129.4524 L85.5869667,137.505133 C84.1107667,140.041 81.7142333,141.6844 79.7364333,142.715467 C82.0486333,142.548267 85.1975667,141.6844 88.0671,138.369 L88.2621667,138.146067 Z" id="Fill-27" fill="#034C8C" mask="url(#mask-2)"></path>
                <path d="M94.56062,138.341427 L94.6999533,138.341427 L96.8170867,134.719493 C98.5726867,131.709893 95.78602,130.344427 93.7524867,133.799893 L92.3591533,136.167827 L90.15842,139.984827 C88.4306867,142.994427 91.74682,143.43956 93.1115533,141.099493 L93.13942,141.04376 C92.97222,140.765093 92.8607533,140.431427 92.8607533,140.068427 C92.8607533,139.12096 93.6131533,138.341427 94.56062,138.341427 L94.56062,138.341427 Z M95.39662,141.962627 C91.4952867,146.895027 84.50222,144.582827 88.15202,138.31356 L89.40602,136.167827 L90.82722,133.687693 C92.4984867,130.790293 94.22622,129.89856 96.45482,129.89856 C99.1857533,129.89856 100.80202,132.768093 99.04642,135.80556 L96.31622,140.514293 C97.7645533,140.486427 99.38082,139.790493 100.68982,138.36856 L100.88562,138.145627 C101.27502,138.31356 101.77662,138.758693 101.971687,139.14956 C100.495487,140.904427 97.7645533,141.962627 96.0375533,141.962627 L95.39662,141.962627 Z" id="Fill-28" fill="#034C8C" mask="url(#mask-2)"></path>
                <path d="M107.32304,135.0536 C107.65744,134.4684 107.518107,133.8832 107.15584,133.409467 L106.765707,132.935733 C104.452773,136.083933 103.365973,137.533 101.973373,139.149267 C101.555373,138.8706 101.137373,138.508333 100.886573,138.146067 C102.781507,135.917467 104.50924,133.4652 105.790373,131.653867 L105.539573,131.319467 C104.50924,129.9826 104.648573,128.338467 106.291973,126.861533 L107.796773,128.505667 C107.211573,129.063 107.211573,129.6482 107.629573,130.177667 L109.24584,132.1276 C110.192573,133.270133 110.666307,134.3012 109.663107,136.056067 L106.765707,141.127067 C106.096907,142.2696 106.459173,142.715467 107.100107,142.715467 C108.381973,142.715467 110.415507,140.792667 112.505507,138.369 L112.700573,138.146067 C113.090707,138.313267 113.592307,138.759133 113.78664,139.149267 C111.39084,141.9352 108.632773,144.498933 106.23624,144.498933 C103.896173,144.498933 103.032307,142.5204 104.257707,140.3754 L107.32304,135.0536 Z" id="Fill-29" fill="#034C8C" mask="url(#mask-2)"></path>
                <path d="M122.427287,141.127213 C121.758487,142.269747 122.120753,142.715613 122.761687,142.715613 C123.95922,142.715613 125.686953,141.40588 127.442553,138.647813 L129.699753,134.69148 C131.12022,132.072013 128.027753,131.375347 126.46722,134.078413 L122.427287,141.127213 Z M134.881487,138.146213 C135.27162,138.313413 135.77322,138.75928 135.968287,139.149413 C133.572487,141.935347 130.813687,144.49908 128.417153,144.49908 C126.940953,144.49908 126.04922,143.71808 125.909887,142.604147 C124.517287,143.745947 123.06822,144.49908 121.89782,144.49908 C119.55702,144.49908 118.693887,142.519813 119.92002,140.375547 L123.987087,133.353147 C125.21322,131.236013 127.38682,130.010613 128.947353,130.010613 C130.841553,130.010613 132.095553,131.709747 131.984087,132.93588 L133.627487,132.93588 L128.947353,141.127213 C128.278553,142.269747 128.64082,142.715613 129.281753,142.715613 C130.562887,142.715613 132.597153,140.792813 134.68642,138.368413 L134.881487,138.146213 Z" id="Fill-30" fill="#034C8C" mask="url(#mask-2)"></path>
                <path d="M148.983047,139.7902 L151.93618,134.7192 C152.327047,134.0504 152.494247,133.4652 152.494247,132.991467 C152.494247,132.2112 152.04838,131.7382 151.407447,131.7382 C149.763313,131.7382 147.757647,135.1086 147.757647,137.170733 C147.757647,138.341133 148.230647,139.232867 148.983047,139.7902 L148.983047,139.7902 Z M148.147047,141.210667 C147.088847,140.541867 146.531513,139.4558 146.30858,138.2018 L145.277513,139.985267 C144.943113,140.598333 144.775913,141.071333 144.775913,141.489333 C144.775913,142.2146 145.30538,142.604 145.946313,142.604 C146.670847,142.604 147.56258,142.158133 148.147047,141.210667 L148.147047,141.210667 Z M150.738647,130.539933 C151.323847,130.1498 151.93618,129.899 152.63358,129.899 C154.249113,129.899 155.252313,131.012933 155.252313,132.489867 C155.252313,133.409467 154.890047,134.5234 154.165513,135.805267 L151.435313,140.514 C152.85578,140.486133 154.499913,139.818067 155.809647,138.369 L156.004713,138.146067 C156.394113,138.313267 156.896447,138.759133 157.091513,139.149267 C155.61458,140.904867 152.883647,141.963067 151.156647,141.963067 C150.933713,141.963067 150.738647,141.963067 150.515713,141.9352 C149.066647,143.802267 147.19958,144.637533 145.584047,144.637533 C143.71698,144.637533 142.24078,143.5236 142.24078,141.5458 C142.24078,140.6262 142.547313,139.5394 143.271113,138.313267 L151.46318,124.1592 L154.416313,124.1592 L150.738647,130.539933 Z" id="Fill-31" fill="#034C8C" mask="url(#mask-2)"></path>
                <path d="M159.405107,137.33808 C160.491907,137.728213 162.35824,137.783213 163.751573,135.41528 L164.169573,134.69148 C165.897307,131.68188 162.94344,131.20888 161.272173,134.078413 L159.405107,137.33808 Z M158.569107,138.758547 L158.29044,139.260147 C156.953573,141.600947 158.011773,142.715613 159.79524,142.715613 C161.829507,142.715613 164.503973,140.792813 166.593973,138.368413 L166.788307,138.146213 C167.179173,138.313413 167.68004,138.758547 167.875107,139.149413 C165.479307,141.935347 162.218907,144.49908 158.931373,144.49908 C155.504507,144.49908 153.943973,141.65668 155.755307,138.564213 L158.79204,133.353147 C160.018173,131.236013 161.884507,130.010613 164.225307,130.010613 C166.593973,130.010613 168.09804,132.01628 166.53824,134.69148 L166.12024,135.41528 C163.94664,139.17728 160.436173,139.539547 158.569107,138.758547 L158.569107,138.758547 Z" id="Fill-32" fill="#034C8C" mask="url(#mask-2)"></path>
                <path d="M170.189213,137.33808 C171.276013,137.728213 173.142347,137.783213 174.53568,135.41528 L174.95368,134.69148 C176.681413,131.68188 173.727547,131.20888 172.05628,134.078413 L170.189213,137.33808 Z M169.353213,138.758547 L169.074547,139.260147 C167.73768,141.600947 168.796613,142.715613 170.579347,142.715613 C172.613613,142.715613 175.28808,140.792813 177.37808,138.368413 L177.572413,138.146213 C177.96328,138.313413 178.464147,138.758547 178.659213,139.149413 C176.263413,141.935347 173.003013,144.49908 169.71548,144.49908 C166.288613,144.49908 164.72808,141.65668 166.539413,138.564213 L169.576147,133.353147 C170.80228,131.236013 172.668613,130.010613 175.009413,130.010613 C177.37808,130.010613 178.882147,132.01628 177.322347,134.69148 L176.904347,135.41528 C174.730747,139.17728 171.22028,139.539547 169.353213,138.758547 L169.353213,138.758547 Z" id="Fill-33" fill="#034C8C" mask="url(#mask-2)"></path>
                <path d="M184.01042,135.0536 C184.34482,134.4684 184.205487,133.8832 183.84322,133.409467 L183.453087,132.935733 C181.140153,136.083933 180.053353,137.533 178.660753,139.149267 C178.242753,138.8706 177.824753,138.508333 177.573953,138.146067 C179.468887,135.917467 181.19662,133.4652 182.477753,131.653867 L182.226953,131.319467 C181.19662,129.9826 181.335953,128.338467 182.979353,126.861533 L184.484153,128.505667 C183.898953,129.063 183.898953,129.6482 184.316953,130.177667 L185.93322,132.1276 C186.880687,133.270133 187.353687,134.3012 186.350487,136.056067 L183.453087,141.127067 C182.784287,142.2696 183.146553,142.715467 183.787487,142.715467 C185.069353,142.715467 187.102887,140.792667 189.192887,138.369 L189.387953,138.146067 C189.778087,138.313267 190.278953,138.759133 190.474753,139.149267 C188.07822,141.9352 185.320153,144.498933 182.92362,144.498933 C180.583553,144.498933 179.719687,142.5204 180.945087,140.3754 L184.01042,135.0536 Z" id="Fill-34" fill="#034C8C" mask="url(#mask-2)"></path>
                <path d="M191.59118,139.984973 L200.702113,124.158907 L203.599513,124.158907 L194.516447,139.984973 L191.59118,139.984973 Z M191.451847,141.127507 C192.399313,141.127507 193.15098,141.879907 193.15098,142.82664 C193.15098,143.774107 192.399313,144.49864 191.451847,144.49864 C190.50438,144.49864 189.779847,143.774107 189.779847,142.82664 C189.779847,141.879907 190.50438,141.127507 191.451847,141.127507 L191.451847,141.127507 Z" id="Fill-35" fill="#034C8C" mask="url(#mask-2)"></path>
                <path d="M59.9324733,27.64388 C59.9324733,34.6171467 54.27994,40.26968 47.3066733,40.26968 C40.3334067,40.26968 34.68014,34.6171467 34.68014,27.64388 C34.68014,20.6706133 40.3334067,15.0173467 47.3066733,15.0173467 C54.27994,15.0173467 59.9324733,20.6706133 59.9324733,27.64388" id="Fill-36" fill="#F0B525" mask="url(#mask-2)"></path>
                <path d="M47.3064533,0 L47.3064533,0 C46.7256533,0 46.25412,0.471533333 46.25412,1.05306667 L46.25412,11.957 C46.25412,12.5378 46.7256533,13.0086 47.3064533,13.0086 C47.8872533,13.0086 48.3587867,12.5378 48.3587867,11.957 L48.3587867,1.05306667 C48.3587867,0.471533333 47.8872533,0 47.3064533,0" id="Fill-37" fill="#F0B525" mask="url(#mask-2)"></path>
                <path d="M19.2485333,27.64388 L19.2485333,27.64388 C19.2485333,28.22468 19.7193333,28.6962133 20.3008667,28.6962133 L31.2048,28.6962133 C31.7863333,28.6962133 32.2571333,28.22468 32.2571333,27.64388 C32.2571333,27.0623467 31.7863333,26.5908133 31.2048,26.5908133 L20.3008667,26.5908133 C19.7193333,26.5908133 19.2485333,27.0623467 19.2485333,27.64388" id="Fill-38" fill="#F0B525" mask="url(#mask-2)"></path>
                <path d="M25.8167067,8.12247333 L25.8167067,8.12247333 C25.4053067,8.53387333 25.4053067,9.19974 25.8167067,9.61040667 L33.5269733,17.3214067 C33.9383733,17.7320733 34.60424,17.7320733 35.0149067,17.3214067 C35.4263067,16.9100067 35.4263067,16.24414 35.0149067,15.8334733 L27.30464,8.12247333 C26.8939733,7.71107333 26.2273733,7.71107333 25.8167067,8.12247333" id="Fill-39" fill="#F0B525" mask="url(#mask-2)"></path>
                <path d="M68.49326,8.12247333 L68.49326,8.12247333 C68.90466,8.53387333 68.90466,9.19974 68.49326,9.61040667 L60.7829933,17.3214067 C60.3715933,17.7320733 59.7057267,17.7320733 59.29506,17.3214067 C58.88366,16.9100067 58.88366,16.24414 59.29506,15.8334733 L67.0053267,8.12247333 C67.4159933,7.71107333 68.0825933,7.71107333 68.49326,8.12247333" id="Fill-40" fill="#F0B525" mask="url(#mask-2)"></path>
                <path d="M47.3064533,55.09592 L47.3064533,55.09592 C47.8872533,55.09592 48.3587867,54.6243867 48.3587867,54.0435867 L48.3587867,43.13892 C48.3587867,42.55812 47.8872533,42.08732 47.3064533,42.08732 C46.7256533,42.08732 46.25412,42.55812 46.25412,43.13892 L46.25412,54.0435867 C46.25412,54.6243867 46.7256533,55.09592 47.3064533,55.09592" id="Fill-41" fill="#F0B525" mask="url(#mask-2)"></path>
                <path d="M75.44416,27.64388 L75.44416,27.64388 C75.44416,27.0623467 74.9726267,26.5908133 74.3918267,26.5908133 L63.48716,26.5908133 C62.90636,26.5908133 62.43556,27.0623467 62.43556,27.64388 C62.43556,28.22468 62.90636,28.6962133 63.48716,28.6962133 L74.3918267,28.6962133 C74.9726267,28.6962133 75.44416,28.22468 75.44416,27.64388" id="Fill-42" fill="#F0B525" mask="url(#mask-2)"></path>
                <path d="M68.49326,46.9733733 L68.49326,46.9733733 C68.90466,46.5619733 68.90466,45.8961067 68.49326,45.48544 L60.7829933,37.77444 C60.3715933,37.3637733 59.7057267,37.3637733 59.29506,37.77444 C58.88366,38.18584 58.88366,38.8517067 59.29506,39.2623733 L67.0053267,46.9733733 C67.4159933,47.3847733 68.0825933,47.3847733 68.49326,46.9733733" id="Fill-43" fill="#F0B525" mask="url(#mask-2)"></path>
                <path d="M25.8167067,46.9733733 L25.8167067,46.9733733 C25.4053067,46.5619733 25.4053067,45.8961067 25.8167067,45.48544 L33.5269733,37.77444 C33.9383733,37.3637733 34.60424,37.3637733 35.0149067,37.77444 C35.4263067,38.18584 35.4263067,38.8517067 35.0149067,39.2623733 L27.30464,46.9733733 C26.8939733,47.3847733 26.2273733,47.3847733 25.8167067,46.9733733" id="Fill-44" fill="#F0B525" mask="url(#mask-2)"></path>
                <path d="M257.096327,34.62558 C256.77806,30.7022467 254.050793,27.4675133 250.39146,26.3983133 C248.843393,20.8477133 243.76286,16.7696467 237.717993,16.7696467 C230.445527,16.7696467 224.55026,22.6656467 224.55026,29.9381133 C224.55026,29.9865133 224.55686,30.0327133 224.557593,30.0811133 C221.022193,30.1676467 217.98546,31.7839133 216.48506,34.1188467 C213.745327,34.7473133 211.700793,37.1959133 211.700793,40.1263133 C211.700793,43.53338 214.462527,46.2958467 217.870327,46.2958467 L254.313327,46.2958467 C257.721127,46.2958467 260.48286,43.53338 260.48286,40.1263133 C260.48286,37.7217133 259.10346,35.6434467 257.096327,34.62558" id="Fill-45" fill="#B3DFFF" mask="url(#mask-2)"></path>
                <path d="M44.8063733,144.7094 L43.4995733,129.0718 C43.4995733,129.0718 42.7237067,128.091333 42.60124,126.8256 C42.4787733,125.5606 43.0507733,124.825067 43.0507733,124.825067 L42.7647733,123.3144 C42.7647733,123.3144 46.03104,122.947 49.74684,122.8656 C53.4619067,122.7842 56.8103067,123.233 56.8103067,123.233 L56.68784,124.620467 C56.68784,124.620467 57.13664,125.4374 57.13664,126.254333 C57.13664,127.070533 56.32044,128.908267 56.32044,128.908267 L55.01364,144.7094 C55.01364,144.7094 53.5843733,146.056533 49.9507067,146.0976 C45.6225733,146.179 44.8063733,144.7094 44.8063733,144.7094" id="Fill-46" fill="#F0B525" mask="url(#mask-2)"></path>
                <path d="M44.2792533,146.674073 C44.7720533,146.92414 46.7197867,147.785073 50.1957867,147.785073 C53.6534533,147.785073 55.1450533,146.819273 55.48972,146.553807 L57.07592,129.02274 L57.1037867,128.968473 C58.3643867,126.524273 57.50932,124.352873 57.50052,124.330873 L57.4711867,124.25974 L57.47852,124.18274 L57.7872533,121.02134 C55.31812,119.453473 50.46272,119.62434 50.41212,119.625807 C46.6119867,119.625807 44.45892,120.017407 43.3200533,120.34594 C42.4275867,120.60334 42.00152,120.862207 41.8306533,120.989073 L42.28752,124.51934 L42.1188533,124.59854 C42.0689867,124.64474 41.73972,124.996007 41.7712533,126.164207 C41.8093867,127.583207 42.5830533,129.030807 42.59112,129.045473 L42.6211867,129.10194 L44.13772,145.61294 L44.2792533,146.674073 Z M50.1957867,148.41134 C45.95052,148.41134 43.91112,147.19254 43.8260533,147.13974 L43.6991867,147.062007 L43.51512,145.67674 L42.0095867,129.28454 C41.85412,128.982407 41.1838533,127.596407 41.14572,126.18034 C41.1134533,124.998207 41.4111867,124.45114 41.6172533,124.216473 L41.1713867,120.77054 L41.2564533,120.666407 C41.31952,120.589407 41.6986533,120.18534 42.9951867,119.78934 C44.7111867,119.26574 47.20232,118.99954 50.3996533,118.99954 C50.60352,118.991473 55.70752,118.81254 58.2954533,120.60774 L58.4457867,120.711873 L58.1084533,124.170273 C58.2653867,124.603673 58.9253867,126.75014 57.6882533,129.200207 L56.0910533,146.85154 L56.01112,146.931473 C55.9502533,146.991607 54.48212,148.41134 50.1957867,148.41134 L50.1957867,148.41134 Z" id="Fill-47" fill="#374140" mask="url(#mask-2)"></path>
                <path d="M19.8412133,144.7094 L18.5344133,129.0718 C18.5344133,129.0718 17.7585467,128.091333 17.63608,126.8256 C17.5136133,125.5606 18.0856133,124.825067 18.0856133,124.825067 L17.7996133,123.3144 C17.7996133,123.3144 21.06588,122.947 24.78168,122.8656 C28.4967467,122.7842 31.8451467,123.233 31.8451467,123.233 L31.72268,124.620467 C31.72268,124.620467 32.17148,125.4374 32.17148,126.254333 C32.17148,127.070533 31.35528,128.908267 31.35528,128.908267 L30.04848,144.7094 C30.04848,144.7094 28.6199467,146.056533 24.9855467,146.0976 C20.6574133,146.179 19.8412133,144.7094 19.8412133,144.7094" id="Fill-48" fill="#F0B525" mask="url(#mask-2)"></path>
                <path d="M19.31402,146.674073 C19.80682,146.92414 21.7545533,147.785073 25.2305533,147.785073 C28.68822,147.785073 30.17982,146.819273 30.5244867,146.553807 L32.1106867,129.02274 L32.1385533,128.968473 C33.3991533,126.524273 32.5440867,124.352873 32.5352867,124.330873 L32.5059533,124.25974 L32.5132867,124.18274 L32.82202,121.02134 C30.3528867,119.453473 25.4974867,119.62434 25.4468867,119.625807 C21.6467533,119.625807 19.4936867,120.017407 18.35482,120.34594 C17.4623533,120.60334 17.0362867,120.862207 16.86542,120.989073 L17.3222867,124.51934 L17.15362,124.59854 C17.1037533,124.64474 16.7744867,124.996007 16.80602,126.164207 C16.8441533,127.583207 17.61782,129.030807 17.6258867,129.045473 L17.6559533,129.10194 L19.1724867,145.61294 L19.31402,146.674073 Z M25.2305533,148.41134 C20.9852867,148.41134 18.9458867,147.19254 18.86082,147.13974 L18.7339533,147.062007 L18.5498867,145.67674 L17.0443533,129.28454 C16.8888867,128.982407 16.21862,127.596407 16.1804867,126.18034 C16.14822,124.998207 16.4459533,124.45114 16.65202,124.216473 L16.2061533,120.77054 L16.29122,120.666407 C16.3542867,120.589407 16.73342,120.18534 18.0299533,119.78934 C19.7459533,119.26574 22.2370867,118.99954 25.4351533,118.99954 C25.6382867,118.991473 30.7422867,118.81254 33.33022,120.60774 L33.4805533,120.711873 L33.14322,124.170273 C33.3001533,124.603673 33.9601533,126.75014 32.72302,129.200207 L31.12582,146.85154 L31.0458867,146.931473 C30.9857533,146.991607 29.5168867,148.41134 25.2305533,148.41134 L25.2305533,148.41134 Z" id="Fill-49" fill="#374140" mask="url(#mask-2)"></path>
                <path d="M247.11038,144.7094 L245.80358,129.0718 C245.80358,129.0718 245.027713,128.091333 244.905247,126.8256 C244.78278,125.5606 245.354047,124.825067 245.354047,124.825067 L245.06878,123.3144 C245.06878,123.3144 248.335047,122.947 252.050113,122.8656 C255.766647,122.7842 259.114313,123.233 259.114313,123.233 L258.991847,124.620467 C258.991847,124.620467 259.440647,125.4374 259.440647,126.254333 C259.440647,127.070533 258.623713,128.908267 258.623713,128.908267 L257.317647,144.7094 C257.317647,144.7094 255.889113,146.056533 252.254713,146.0976 C247.92658,146.179 247.11038,144.7094 247.11038,144.7094" id="Fill-50" fill="#F0B525" mask="url(#mask-2)"></path>
                <path d="M246.582527,146.674073 C247.07606,146.92414 249.023793,147.785073 252.49906,147.785073 C255.95746,147.785073 257.448327,146.819273 257.792993,146.553807 L259.379193,129.02274 L259.40706,128.968473 C260.66766,126.524273 259.813327,124.352873 259.803793,124.330873 L259.775193,124.25974 L259.782527,124.18274 L260.09126,121.02134 C257.622127,119.453473 252.766727,119.62434 252.716127,119.625807 C248.915993,119.625807 246.762927,120.017407 245.623327,120.34594 C244.731593,120.60334 244.305527,120.862207 244.13466,120.989073 L244.591527,124.51934 L244.423593,124.59854 C244.372993,124.64474 244.042993,124.996007 244.07526,126.164207 C244.113393,127.583207 244.88706,129.030807 244.894393,129.045473 L244.925193,129.10194 L246.441727,145.61294 L246.582527,146.674073 Z M252.49906,148.41134 C248.254527,148.41134 246.215127,147.19254 246.13006,147.13974 L246.003193,147.062007 L245.818393,145.67674 L244.31286,129.28454 C244.158127,128.982407 243.487127,127.596407 243.449727,126.18034 C243.41746,124.998207 243.715193,124.45114 243.92126,124.216473 L243.475393,120.77054 L243.56046,120.666407 C243.623527,120.589407 244.00266,120.18534 245.29846,119.78934 C247.015193,119.26574 249.506327,118.99954 252.704393,118.99954 C252.906793,118.991473 258.011527,118.81254 260.598727,120.60774 L260.749793,120.711873 L260.41246,124.170273 C260.569393,124.603673 261.229393,126.75014 259.99226,129.200207 L258.39506,146.85154 L258.314393,146.931473 C258.25426,146.991607 256.785393,148.41134 252.49906,148.41134 L252.49906,148.41134 Z" id="Fill-51" fill="#374140" mask="url(#mask-2)"></path>
                <path d="M222.144853,144.7094 L220.838787,129.0718 C220.838787,129.0718 220.06292,128.091333 219.940453,126.8256 C219.817253,125.5606 220.389253,124.825067 220.389253,124.825067 L220.103987,123.3144 C220.103987,123.3144 223.370253,122.947 227.08532,122.8656 C230.80112,122.7842 234.148787,123.233 234.148787,123.233 L234.02632,124.620467 C234.02632,124.620467 234.47512,125.4374 234.47512,126.254333 C234.47512,127.070533 233.65892,128.908267 233.65892,128.908267 L232.352853,144.7094 C232.352853,144.7094 230.923587,146.056533 227.28992,146.0976 C222.961787,146.179 222.144853,144.7094 222.144853,144.7094" id="Fill-52" fill="#F0B525" mask="url(#mask-2)"></path>
                <path d="M221.617733,146.674073 C222.111267,146.92414 224.058267,147.785073 227.534267,147.785073 C230.991933,147.785073 232.483533,146.819273 232.8282,146.553807 L234.4144,129.02274 L234.442267,128.968473 C235.702867,126.524273 234.8478,124.352873 234.839,124.330873 L234.809667,124.25974 L234.817,124.18274 L235.125733,121.02134 C232.657333,119.453473 227.8012,119.62434 227.7506,119.625807 C223.950467,119.625807 221.7974,120.017407 220.658533,120.34594 C219.7668,120.60334 219.34,120.862207 219.169867,120.989073 L219.626,124.51934 L219.458067,124.59854 C219.4082,124.64474 219.0782,124.996007 219.109733,126.164207 C219.1486,127.583207 219.922267,129.030807 219.9296,129.045473 L219.9604,129.10194 L221.4762,145.61294 L221.617733,146.674073 Z M227.534267,148.41134 C223.289733,148.41134 221.2496,147.19254 221.165267,147.13974 L221.037667,147.062007 L220.8536,145.67674 L219.348067,129.28454 C219.193333,128.982407 218.522333,127.596407 218.4842,126.18034 C218.452667,124.998207 218.7504,124.45114 218.955733,124.216473 L218.5106,120.77054 L218.594933,120.666407 C218.658,120.589407 219.037867,120.18534 220.333667,119.78934 C222.049667,119.26574 224.5408,118.99954 227.738867,118.99954 C227.942,118.991473 233.046,118.81254 235.633933,120.60774 L235.785,120.711873 L235.447667,124.170273 C235.603867,124.603673 236.2646,126.75014 235.026733,129.200207 L233.429533,146.85154 L233.3496,146.931473 C233.289467,146.991607 231.8206,148.41134 227.534267,148.41134 L227.534267,148.41134 Z" id="Fill-53" fill="#374140" mask="url(#mask-2)"></path>
            </g>
        </g>
    </g>
</svg>