<?xml version="1.0" encoding="UTF-8"?>
<svg width="102px" height="122px" viewBox="0 0 102 122" version="1.1" xmlns="http://www.w3.org/2000/svg" xmlns:xlink="http://www.w3.org/1999/xlink">
    <title>stormy-icon</title>
    <defs>
        <polygon id="path-1" points="3.77777778e-05 0.0114450867 101.999622 0.0114450867 101.999622 65.8175272 3.77777778e-05 65.8175272"></polygon>
    </defs>
    <g id="Page-1" stroke="none" stroke-width="1" fill="none" fill-rule="evenodd">
        <g id="Desktop" transform="translate(-127.000000, -2450.000000)">
            <g id="stormy-icon" transform="translate(127.000000, 2450.000000)">
                <g id="Group-3">
                    <mask id="mask-2" fill="white">
                        <use xlink:href="#path-1"></use>
                    </mask>
                    <g id="Clip-2"></g>
                    <path d="M83.3737044,28.1982902 L81.4825489,28.1982902 C80.3461933,12.4410763 67.33666,0.0113306358 51.4435489,0.0113306358 C35.55006,0.0113306358 22.5405267,12.4410763 21.4041711,28.1982902 L18.6259933,28.1982902 C8.33910444,28.1982902 3.77777778e-05,36.619585 3.77777778e-05,47.0079087 C3.77777778e-05,57.3962324 8.33910444,65.8175272 18.6259933,65.8175272 L83.3737044,65.8175272 C93.6605933,65.8175272 101.99966,57.3962324 101.99966,47.0079087 C101.99966,36.619585 93.6605933,28.1982902 83.3737044,28.1982902" id="Fill-1" fill="#FFFFFF" mask="url(#mask-2)"></path>
                </g>
                <polygon id="Fill-4" fill="#FFFFFF" points="61.8053435 70 47.1687023 70 40 99.7144484 50.4545802 99.4175356 47.1687023 122 63 90.2060224 53.740458 89.9087298"></polygon>
            </g>
        </g>
    </g>
</svg>