<?xml version="1.0" encoding="UTF-8"?>
<svg width="125px" height="125px" viewBox="0 0 125 125" version="1.1" xmlns="http://www.w3.org/2000/svg" xmlns:xlink="http://www.w3.org/1999/xlink">
    <title>sunny-icon</title>
    <g id="Page-1" stroke="none" stroke-width="1" fill="none" fill-rule="evenodd">
        <g id="Desktop" transform="translate(-110.000000, -2158.000000)" fill="#FFFFFF">
            <g id="sunny-icon" transform="translate(110.000000, 2158.000000)">
                <path d="M62.4160841,34.4245557 C47.5647808,34.4245557 35.5256813,46.4639514 35.5256813,61.3149585 C35.5256813,76.1662618 47.5647808,88.2053614 62.4160841,88.2053614 C77.2673874,88.2053614 89.3067832,76.1662618 89.3067832,61.3149585 C89.3067832,46.4639514 77.2673874,34.4245557 62.4160841,34.4245557" id="Fill-1"></path>
                <path d="M62.4160841,95.6237263 C60.7516884,95.6237263 59.4024585,96.9729562 59.4024585,98.6373519 L59.4024585,121.818928 C59.4024585,123.483323 60.7516884,124.832257 62.4160841,124.832257 C64.0804799,124.832257 65.4297097,123.483323 65.4297097,121.818928 L65.4297097,98.6373519 C65.4297097,96.9729562 64.0804799,95.6237263 62.4160841,95.6237263" id="Fill-3"></path>
                <path d="M62.4160841,29.2086493 C64.0804799,29.2086493 65.4297097,27.8594194 65.4297097,26.1950237 L65.4297097,3.01344787 C65.4297097,1.34934834 64.0804799,0.000118483412 62.4160841,0.000118483412 C60.7516884,0.000118483412 59.4024585,1.34934834 59.4024585,3.01344787 L59.4024585,26.1950237 C59.4024585,27.8594194 60.7516884,29.2086493 62.4160841,29.2086493" id="Fill-5"></path>
                <path d="M34.6730154,85.897423 L18.2814277,102.289307 C17.104295,103.466143 17.104295,105.374319 18.2814277,106.551155 C19.4582642,107.727992 21.3664396,107.727992 22.5429799,106.551155 L38.9348637,90.1592713 C40.1117002,88.9824348 40.1117002,87.0742595 38.9348637,85.897423 C37.7580273,84.7202903 35.8498519,84.7202903 34.6730154,85.897423" id="Fill-7"></path>
                <path d="M90.1593306,38.934923 L106.550918,22.5433353 C107.728051,21.3662026 107.728051,19.4583235 106.550918,18.2811908 C105.374082,17.1043543 103.466203,17.1043543 102.28907,18.2811908 L85.8974822,34.6730746 C84.7206457,35.8499111 84.7206457,37.7580865 85.8974822,38.934923 C87.0743187,40.1117595 88.9824941,40.1117595 90.1593306,38.934923" id="Fill-9"></path>
                <path d="M29.2086197,62.4162618 C29.2086197,60.7518661 27.8593898,59.4026363 26.1949941,59.4026363 L3.01341825,59.4026363 C1.34931872,59.4026363 8.88625592e-05,60.7518661 8.88625592e-05,62.4162618 C8.88625592e-05,64.0806576 1.34931872,65.4298874 3.01341825,65.4298874 L26.1949941,65.4298874 C27.8593898,65.4298874 29.2086197,64.0806576 29.2086197,62.4162618" id="Fill-11"></path>
                <path d="M121.818632,59.4026659 L98.6373519,59.4026659 C96.9729562,59.4026659 95.6237263,60.7518957 95.6237263,62.4162915 C95.6237263,64.0806872 96.9729562,65.4299171 98.6373519,65.4299171 L121.818632,65.4299171 C123.483027,65.4299171 124.832257,64.0806872 124.832257,62.4162915 C124.832257,60.7518957 123.483027,59.4026659 121.818632,59.4026659" id="Fill-13"></path>
                <path d="M34.6730154,38.934923 C35.8498519,40.1117595 37.7580273,40.1117595 38.9348637,38.934923 C40.1117002,37.7580865 40.1117002,35.8499111 38.9348637,34.6730746 L22.5429799,18.2811908 C21.3664396,17.1043543 19.4582642,17.1043543 18.2814277,18.2811908 C17.104295,19.4583235 17.104295,21.3662026 18.2814277,22.5433353 L34.6730154,38.934923 Z" id="Fill-15"></path>
                <path d="M90.1593306,85.897423 C88.9824941,84.7202903 87.0743187,84.7202903 85.8974822,85.897423 C84.7206457,87.0742595 84.7206457,88.9824348 85.8974822,90.1592713 L102.28907,106.551155 C103.466203,107.727992 105.374082,107.727992 106.550918,106.551155 C107.728051,105.374319 107.728051,103.466143 106.550918,102.289307 L90.1593306,85.897423 Z" id="Fill-17"></path>
            </g>
        </g>
    </g>
</svg>